<svg width="236" height="379" viewBox="0 0 236 379" fill="none" xmlns="http://www.w3.org/2000/svg">
  <path fill-rule="evenodd" clip-rule="evenodd"
        d="M110.304 374.393L26.8945 291.235C21.4217 285.986 19.6251 282.442 19.4091 274.71L0.160699 129.716C-0.38103 122.027 0.345699 118.674 3.90343 114.79L109.235 6.04432C116.796 -2.30846 120.9 -1.71564 127.948 6.04432L231.141 108.393C235.028 113.097 236.269 116.066 235.953 122.253L218.843 268.313C218.039 274.28 216.765 277.182 212.962 281.64L127.414 374.393C121.324 380.608 117.562 380.463 110.304 374.393ZM118.859 350.405L40.7961 273.111L24.7558 151.038L94.7984 207.543L123.136 344.541L118.859 350.405ZM104.423 186.221L26.8945 122.253L106.561 41.7597L149.87 152.104L104.423 186.221ZM132.76 278.974L117.255 205.944L149.87 181.423L132.76 278.974ZM149.87 317.355L173.396 166.497L212.962 140.91L196.922 266.181L149.87 317.355ZM208.15 118.521L169.653 140.91L137.038 51.3549L208.15 118.521Z"
        fill="white"/>
</svg>
